/* XPM */
static char *cab0798d68f04f07d0d7c2aed57a0dd2945gadRpAt2B00Su[] = {
/* columns rows colors chars-per-pixel */
"50 50 208 2 ",
"   c None",
".  c #502D04",
"X  c #783C09",
"o  c #67491F",
"O  c #973F14",
"+  c #804607",
"@  c #88420C",
"#  c #9E480E",
"$  c #9E5A07",
"%  c #965407",
"&  c #964510",
"*  c #A64D0F",
"=  c #A85A09",
"-  c #B65A0F",
";  c #A74516",
":  c #B54B18",
">  c #BE4F1A",
",  c #BB5614",
"<  c #BC6D07",
"1  c #B9630B",
"2  c #B4611F",
"3  c #BE731C",
"4  c #935130",
"5  c #C3531B",
"6  c #CA571C",
"7  c #D45A1C",
"8  c #DB5B1D",
"9  c #D3571D",
"0  c #E25D1F",
"q  c #CB7309",
"w  c #D37D0E",
"e  c #D97D08",
"r  c #CF6413",
"t  c #C47617",
"y  c #CA7916",
"u  c #C4761A",
"i  c #C77819",
"p  c #CC7B1B",
"a  c #C87714",
"s  c #D37E13",
"d  c #D3701E",
"f  c #D36813",
"g  c #EA611F",
"h  c #E86C18",
"j  c #F86B1D",
"k  c #F47617",
"l  c #CC5F2B",
"z  c #C46B23",
"x  c #CB6F24",
"c  c #CE602C",
"v  c #CD6320",
"b  c #D46C23",
"n  c #DF6923",
"m  c #D4622C",
"M  c #D86328",
"N  c #CE7125",
"B  c #C17A28",
"V  c #D37326",
"C  c #DA7626",
"Z  c #D07F25",
"A  c #D57529",
"S  c #D97728",
"D  c #DC7929",
"F  c #C47332",
"G  c #E96622",
"H  c #F46521",
"J  c #FA6721",
"K  c #FD6922",
"L  c #F76B26",
"P  c #E57226",
"I  c #EC7627",
"U  c #E37A27",
"Y  c #E37C29",
"T  c #E97E29",
"R  c #FD7326",
"E  c #FE7D29",
"W  c #F97B28",
"Q  c #E16E37",
"!  c #F06F33",
"~  c #FB793C",
"^  c #F27438",
"/  c #EE7B3A",
"(  c #C4724C",
")  c #DD8205",
"_  c #DF8512",
"`  c #D5801B",
"'  c #DB831B",
"]  c #D78117",
"[  c #E98905",
"{  c #EC8C0C",
"}  c #E68508",
"|  c #F08D09",
" . c #F79107",
".. c #FF9606",
"X. c #FF9807",
"o. c #F5910B",
"O. c #FD940A",
"+. c #FF9809",
"@. c #E18612",
"#. c #EA8B13",
"$. c #EB8D19",
"%. c #E38A19",
"&. c #F88B12",
"*. c #EE901D",
"=. c #F39113",
"-. c #FA9514",
";. c #DC8D31",
":. c #ED812B",
">. c #F4852C",
",. c #FD842B",
"<. c #FE8B2E",
"1. c #E59529",
"2. c #FD8B30",
"3. c #F98133",
"4. c #FE9037",
"5. c #FBA228",
"6. c #B88540",
"7. c #9E8779",
"8. c #BD8867",
"9. c #D88546",
"0. c #DE935B",
"q. c #DD9D48",
"w. c #E88E4D",
"e. c #EA895A",
"r. c #E19358",
"t. c #FA8C57",
"y. c #CC9F63",
"u. c #D2936A",
"i. c #DA9E6E",
"p. c #C98B71",
"a. c #C3997C",
"s. c #F69B6A",
"d. c #CFA56D",
"f. c #F8BF6F",
"g. c #F4A97A",
"h. c #F0A971",
"j. c #9E9A99",
"k. c #B39E99",
"l. c #AE968F",
"z. c #B6A89F",
"x. c #99A4B6",
"c. c #9CA6B8",
"v. c #9EA9BB",
"b. c #97A3B5",
"n. c #BFB3AE",
"m. c #A2ACBD",
"M. c #A7A6B1",
"N. c #AFB0B8",
"B. c #B5B5BA",
"V. c #DE9F81",
"C. c #D5A789",
"Z. c #D0A793",
"A. c #EEBC95",
"S. c #F4B192",
"D. c #CCB4A4",
"F. c #CCBAAE",
"G. c #D2B7A3",
"H. c #F9C19A",
"J. c #DCCEBB",
"K. c #F4D4BA",
"L. c #F6CAA7",
"P. c #A6B0C0",
"I. c #ABB5C4",
"U. c #B4BDCB",
"Y. c #B5B8C2",
"T. c #C8BEC0",
"R. c #B7C0CE",
"E. c #B9C2CF",
"W. c #BCC5D2",
"Q. c #BFC8D4",
"!. c #CDC6C3",
"~. c #C9C8CA",
"^. c #D2CAC0",
"/. c #C1C9D5",
"(. c #C4CDD9",
"). c #D0CFD0",
"_. c #C7D0DC",
"`. c #CBD3DD",
"'. c #CBD0D5",
"]. c #D4D1D1",
"[. c #D4D9DE",
"{. c #D6D7DA",
"}. c #E3DBDA",
"|. c #F5DFD6",
" X c #F4DFD8",
".X c #EEDACA",
"XX c #E5E3DF",
"oX c #CCD5E0",
"OX c #CED9E4",
"+X c #D3DBE5",
"@X c #D6DFE8",
"#X c #D9DEE4",
"$X c #DCE3EC",
"%X c #D9E0E7",
"&X c #DFEAF5",
"*X c #E1E1E3",
"=X c #E1E8EF",
"-X c #E1E7EE",
";X c #F3EBE6",
":X c #F3F0E9",
">X c #E4EBF3",
",X c #E9EEF3",
"<X c #EAF0F6",
"1X c #EDF4FA",
"2X c #E7F0F9",
"3X c #F1F7FC",
"4X c #F3F9FE",
"5X c #F2F6F7",
/* pixels */
"                                                                                                    ",
"                                                                                                    ",
"                                                                                                    ",
"                                                                                                    ",
"                                                                                                    ",
"                                                                                                    ",
"                                                                                                    ",
"                                                                                                    ",
"                                                                                                    ",
"                                                                                                    ",
"                                            [.>X,X#X                                                ",
"                                '.[.[.[.%X,X3X>X>X3X[.                                              ",
"                            `.>X3X4X4X4X4X4X>X$X%X4X1X$X$XW.                                        ",
"                      ....d.>X1X>X+X_._.$X3X3X>X`./.(.oXOXY.0.<.<.<.<.<.<.<.                        ",
"                    ......q.N.I.M.l.8.8.k.+X*XC.r.0.u.p.p.r.,.,.<.<.:.N N T <.                      ",
"                    +.$.=.{ 1.6.4 L H V F n.G.N T <.<.E E >.U N V >.z :.:.z >.                      ",
"                    #.u i 3 s [ X H K ,.<.C.A.:.V x V V N N D >.<.<.V N x z <.                      ",
"                  X.' s u o.u { X 0 K R 2.D.K.2.<.>.:.:.>.<.<.>.>.>.T V z Y <.<.                    ",
"                  X.' s @...y #.+ 0 K K / B..X4.<.<.<.<.<.<.<.Y N V V Y >.<.<.<.                    ",
"                  ..=.t ....t $.@ G K K ! k.C.2.U N N x x N C T :.:.D >.<.<.,.3.                    ",
"                    +.' y w Z _ & J K K K ! L K P W ,.<.<.:.Y C S D U ,.,.E s. X4X                  ",
"                     .+.@.' -.< 5 g > O ; ; ; : > 5 6 v b b b 9.L.K.H.s.e.S.:X4X4X>X                ",
"            ....O.k r  .X.X.} . - } ) $ > 8 8 8 G U U U U Y U a.&X4X4X3X<X4X4X1X>X_.z.              ",
"          ........O.h r e < . . [ X.X...1 8 K J I <.<.<.<.<.<.0.N.W.OX1X4X1X].D.l.7.9.<.            ",
"          +.$.=.o...&.H 8 5 2 q -.=.O.+.) @ H H b x N N V :.<.2.w.u.a.!.3X!.9.S V :.x :.            ",
"          #.u i 3 _ O.j K K d { p p 3 y O.+ 9 K E <.>.>.T V x C U C x 8.$Xh.<.D N V z Y <.          ",
"        X.` s u =.u o.j J J , #.i i #.p #.% : K L <.<.<.<.<.>.Y U T >.r.#Xh.,.>.D z x <.<.          ",
"        X.` s _ ..i #.f J H - #.y ]  .@.' = : K 7 n ,.<.<.<.<.<.<.<.<.i.-Xi.x N V Y <.<.<.          ",
"        ..$.a ....u #.r K J - o.u | X.w %.$ 5 K H 9 M ,.<.>.S V N V S Z.2Xg.>.:.:.<.<.<.,.          ",
"          +.p s w Z @.7 K K , [ %.t { u *.% 0 K K J 5 H R P P >.>.:.Y a.F.9.N V :.<.,.R /           ",
"          +.o.` ` -.q g K K 9 q X._ B ;.@.# J J J K 0 6 0 H K R R E E 3.3.I I P n 7 G K Z.v.        ",
"        5Xf.....X.) * J J K H = %.y.z.^.J.V.~ J K K K g 7 7 J K K K K K K 0 7 8 8 g j t.}.v.c.      ",
"      @X3X:Xf.5.1.o 4 ~ ~ ~ ~ ( j.W.>X4X4X4X Xg.Q M m M m m m m m m m c c c c c l c e. X>Xm.c.      ",
"      m.`.1X3X;XXX[.XX;X;X}.T.Y.@X3X4X4X4X4X4X3X{.].].].].].].].].].~.~.].].).~.).].,X4X%Xc.c.      ",
"      c.c.I./.oX+X+X@X$X>X@X@X1X4X4X4X4X4X4X4X4X4X4X4X4X4X4X4X4X4X4X1X<X$X`.>X%X%X1X1X=XU.c.        ",
"        c.c.b.c.c.c.c.v.R.<X4X3X4X4X4X4X3X<X>X@XoX(.Q.W.E.E.W./._.+X$X<X$XW.`.3XW.P.I.m.c.          ",
"                        v.=X4X4X3X>X@X(.U.P.m.c.c.c.b.b.b.b.b.b.b.c.v.P.R.`.%X$XU.b.c.c.            ",
"                  c.c.c.U.,X$X`.U.m.c.c.c.                      c.c.c.c.c.c.m.m.                    ",
"                c.c.c.v.U.I.v.c.c.                                                                  ",
"                  c.c.c.c.c.                                                                        ",
"                                                                                                    ",
"                                                                                                    ",
"                                                                                                    ",
"                                                                                                    ",
"                                                                                                    ",
"                                                                                                    ",
"                                                                                                    ",
"                                                                                                    ",
"                                                                                                    ",
"                                                                                                    "
};
