/* XPM */
static char *a1439e82e9154314f6f7e4e16ac3e6beBMuKqtgcp92Duma7[] = {
/* columns rows colors chars-per-pixel */
"32 32 239 2 ",
"   c None",
".  c #181818",
"X  c gray10",
"o  c #352F1E",
"O  c #6A0E1E",
"+  c #6E0E1F",
"@  c #65121C",
"#  c #661C1D",
"$  c #463A12",
"%  c #61251C",
"&  c #6C0E20",
"*  c #592527",
"=  c #753D20",
"-  c #73343F",
";  c #4F4115",
":  c #49453A",
">  c #7A4720",
",  c #71434B",
"<  c #70464E",
"1  c #774B53",
"2  c #764E55",
"3  c #6B5B57",
"4  c #6E5D58",
"5  c #83102A",
"6  c #841029",
"7  c #88112B",
"8  c #8B102B",
"9  c #8D1D2C",
"0  c #94192F",
"q  c #89212B",
"w  c #823926",
"e  c #D42117",
"r  c #D7261C",
"t  c #D8261C",
"y  c #D9281C",
"u  c #D9291C",
"i  c #DA291C",
"p  c #D9281E",
"a  c #DB291E",
"s  c #DC2B1E",
"d  c #DC2B1F",
"f  c #DD2D1F",
"g  c #DB2B20",
"h  c #DD2D21",
"j  c #DF2F21",
"k  c #DF2E22",
"l  c #DF3021",
"z  c #DF3321",
"x  c #DE3022",
"c  c #DF3022",
"v  c #DF3023",
"b  c #DF3123",
"n  c #E02F21",
"m  c #E13122",
"M  c #E03023",
"N  c #E13223",
"B  c #E03323",
"V  c #E13323",
"C  c #E03125",
"Z  c #E03224",
"A  c #E33325",
"S  c #E23425",
"D  c #E33425",
"F  c #E33526",
"G  c #E53726",
"H  c #E53927",
"J  c #E63928",
"K  c #E73929",
"L  c #E73A29",
"P  c #E73B2A",
"I  c #E73D2A",
"U  c #E83B2A",
"Y  c #E83C2A",
"T  c #E93D2A",
"R  c #EB3E2B",
"E  c #EA3D2C",
"W  c #EA3E2C",
"Q  c #EA3F2C",
"!  c #8A4E26",
"~  c #8D5E26",
"^  c #946428",
"/  c #EC4D26",
"(  c #EC412D",
")  c #ED432F",
"_  c #EF442F",
"`  c #E64C29",
"'  c #E74C2A",
"]  c #F0492D",
"[  c #F04B2F",
"{  c #EC5526",
"}  c #E65925",
"|  c #E75925",
" . c #F1542C",
".. c #EF4630",
"X. c #EF4C34",
"o. c #EE4D35",
"O. c #F04530",
"+. c #F04531",
"@. c #F44C35",
"#. c #F64F35",
"$. c #F44C36",
"%. c #F64E36",
"&. c #F74F37",
"*. c #FA5736",
"=. c #FB5937",
"-. c #FB5E37",
";. c #FD5F37",
":. c #F95238",
">. c #FA533A",
",. c #FC563A",
"<. c #FD563C",
"1. c #FD573C",
"2. c #FD593B",
"3. c #FC5C38",
"4. c #FD5E39",
"5. c #FE5C3A",
"6. c #FE5E3A",
"7. c #FE593D",
"8. c #FD5A3C",
"9. c #FF5A3D",
"0. c #FF593E",
"q. c #FF5C3C",
"w. c #F26628",
"e. c #F26728",
"r. c #F67229",
"t. c #FB742F",
"y. c #E1623B",
"u. c #F66130",
"i. c #FE6337",
"p. c #FC6536",
"a. c #FD6934",
"s. c #FD6A34",
"d. c #FC7231",
"f. c #FB7630",
"g. c #FB7731",
"h. c #FD7432",
"j. c #FD7134",
"k. c #FD7235",
"l. c #FB7930",
"z. c #FB7831",
"x. c #FB7931",
"c. c #FB7E30",
"v. c #FB7F31",
"b. c #FC7D32",
"n. c #FC7C33",
"m. c #947C5E",
"M. c #8F7C6A",
"N. c #917B62",
"B. c #937E67",
"V. c #8A6D72",
"C. c #857777",
"Z. c #CF7A63",
"A. c #CE7F6A",
"S. c #AF882E",
"D. c #B89030",
"F. c #CA903F",
"G. c #F98B25",
"H. c #FA802C",
"J. c #FA802D",
"K. c #FB882D",
"L. c #FB8E2E",
"P. c #F99323",
"I. c #F99427",
"U. c #FA972A",
"Y. c #FA9F2A",
"T. c #FB9A2F",
"R. c #FB9C2F",
"E. c #FB8531",
"W. c #FB8630",
"Q. c #FB8A30",
"!. c #FB8C31",
"~. c #FB8C32",
"^. c #EE9133",
"/. c #EE9434",
"(. c #EE9834",
"). c #FB9131",
"_. c #FB9530",
"`. c #FA9632",
"'. c #FA9C31",
"]. c #C5A433",
"[. c #C8A135",
"{. c #DFA137",
"}. c #D1AB38",
"|. c #D4B138",
" X c #D9B139",
".X c #DCB43A",
"XX c #FBA12F",
"oX c #F0A136",
"OX c #FAA132",
"+X c #FAA332",
"@X c #FBA431",
"#X c #FBA630",
"$X c #FBA631",
"%X c #FAA832",
"&X c #FAAA32",
"*X c #FAAF33",
"=X c #E0B839",
"-X c #E3BE3E",
";X c #E6BC3C",
":X c #FAB533",
">X c #FAB134",
",X c #FAB833",
"<X c #FBBC34",
"1X c #FBBC36",
"2X c #FBBC37",
"3X c #FBBE36",
"4X c #E8C03C",
"5X c #E8C13C",
"6X c #EDC43C",
"7X c #FBC439",
"8X c #FBC63A",
"9X c #FBC73A",
"0X c #FBCE3D",
"qX c #FBCE3E",
"wX c #FCCF3F",
"eX c #9B8C5A",
"rX c #A5914B",
"tX c #A79052",
"yX c #9B897C",
"uX c #AD9E6B",
"iX c #BD987D",
"pX c #BDAB6C",
"aX c #BBA479",
"sX c #C1A74F",
"dX c #D5B440",
"fX c #EBC540",
"gX c #F3CA40",
"hX c #F3CB40",
"jX c #F8CF41",
"kX c #FCCF40",
"lX c #FAD041",
"zX c #FBD041",
"xX c #FCD142",
"cX c #FCD242",
"vX c #988185",
"bX c #988B85",
"nX c #BC9380",
"mX c #E2E2E2",
"MX c gray95",
/* pixels */
"                                                                ",
"                                                                ",
"                                                                ",
"                                                                ",
"                                    G r.H                       ",
"                                  $.i.t.                        ",
"                              h 4.R.T.E                         ",
"                            f 8.XXcXv.d y                       ",
"                        y   >.L.cX2X4.] J                       ",
"                      $.  +.j.9XcX'.8.G.A                       ",
"                    w. .z q.$XcXcXE.U.4.    n                   ",
"                  M 8.+.u.J.kXcXcXP.0Xa.  w.{                   ",
"                  ( E.d.n.$XcXcXcX2XcXl.e 4.I                   ",
"                  =.2XJ.K.wXcXcXcXcXcX~.D Y./                   ",
"                M l.cXl.| ^.zXcXcXzX/.| 8.I.]                   ",
"                E ).fXaXA.o.' (.oX' o.Z.nXy.p.                  ",
"                $.*XpXmX. C.F.zXcX{.3 . MXiX$XU                 ",
"              M h.6XrXuX; o sXcXcXdX: $ eXtX=Xf.                ",
"    y   y     R ).cXcX[.5XhX].cXcX|.-XcX}. XcX_.J     y   y     ",
"t   (   D     $.%XcXcX^ * bXM.N.m.B.yX4 @ S.cX*X$.    D   (   r ",
"z z >.$.      2.2XcXcXD.O , < V.2 vX1 - # 5XcX,X8.      $.>.z z ",
"    $.8.      >.:XcXcXzX= + + + + + + + ~ cXcX,X,.      8.$.    ",
"    d 1.J   A z _.cXcXcX.X% 5 8 6 8 & > hXcXcXOXM A   J 1.g     ",
"      z _ R   y -.%XcXcXcX;Xw 9 0 q ! jXcXcX9Xj.z   R _ h       ",
"                h *.Q.>X0XcXcXcXcXcXcXcX9XOXj.E                 ",
"                    R $.a.n.E.~.~.E.v.f.;...M                   ",
"                          A D J J J D                           ",
"                                                                ",
"                                                                ",
"                                                                ",
"                                                                ",
"                                                                "
};
