/* XPM */
static char *_2fbe1d1cf91403dada6e04fd27bb1fflEGeRQfecQdiV7Gg[] = {
/* columns rows colors chars-per-pixel */
"50 50 25 1 ",
"  c gray17",
". c #2C2C2C",
"X c #313131",
"o c #353535",
"O c #3A3A3A",
"+ c gray24",
"@ c #434343",
"# c gray28",
"$ c #4B4B4B",
"% c gray31",
"& c #535353",
"* c #565656",
"= c #5B5B5B",
"- c gray36",
"; c #606060",
": c #656565",
"> c #6A6A6A",
", c #6D6D6D",
"< c gray44",
"1 c #767676",
"2 c gray47",
"3 c #7C7C7C",
"4 c #818181",
"5 c #848484",
"6 c #888888",
/* pixels */
"6,%&&&>1111111555555%     XOOOOX     O%Xo%16531111",
"6,%%*:<1111111333335,-;#  XOoXX.   .+#%oX#=,543333",
"4>&&;111111111111125566=  XO.     .X%%$X.O#=344555",
"*&&><111111111111111456=   .      O%%@...O$&**=<22",
"%*;<1111111111333333554*  XOOOO#%$*;;%  .O#$%&&===",
"%;11111111111155454443<% .O&&&&>11111=...OO+%%%+OO",
"&>5555555555556,+#$$#+OX @$%&&&<41111,:O .o++@++o.",
"@=1111111111111-.Xoo..@@#=-;*&&<511111<+  XoooooX ",
" +&&&&&&&&&&&&&$O. ..o,11135-%&<511111<+       .. ",
" o@@@@%&&#@@@@@+O.o--;<11355-%&$&344111:&     .=$ ",
" XooOO#$#+ooooo+#+$111112542-%$oO1452111:+OOOO@,-O",
"  . XO+O.      #<<<11113561&=%.o+&,653111<<<<<<11<",
";#  .XXX  X-;;*;111134455,=##@oO+%->45311111111111",
"6;X.   .XX+46521111145443*#OOOOO+%%&24521111111111",
"53>o   O>=*46521111144=**@+OX..o++++&>655521111111",
"61;o  @*1*@=<532111353*&%+OX.  XooO+#&::,543333333",
"4>$X.X;11$. *454112552&%%+o  .X.  XOOOOO%344445544",
"$#+.+:<11,-.X@365556,&oO+X.  O:@   .....XO#$$&==&$",
"ooo@*11111,$o.-<4431-$XoO. .+&1*@####O    Xoo+@$@O",
"..X>11111111&  #11>&&%+OO. .;11111111=.....   .O++",
";;;<11111111>=XX@*=&#+X.. +;<11111111,;;:,$X O$,<<",
"22222111111121$o @$$+o. .O&111111111111126*o.+*146",
"555541111111355; o++X   X:1111111111111125*o.+&&>6",
":<355444421354=#oXXX..+@#,1111111111124445*o.+&&=:",
"%-<34555532552OXO..XXo%&=<2111111112135323&o.+%%&%",
"&&**;1125566<&+o. X%%%%;145521111135555$o@+O..X$&&",
"&&&%*;;:,:;;*#+o  X+$&&=:>1543333345<,>@XOoX +%###",
"%%&%%%%%%@O++@+o..  @%%%&%;444444453*%%@OOXX.*<$+O",
"XO++++++++@:>>&$$X  O++$&%*=========&$++o.&>:143=.",
" .oooooooo+<11;--$+.XoO@$$$$%&%%%%%%#@O@@#:11346,$",
"..........o,111111;...OOOOO+$&&&&&&%XX+$=111111555",
";*##%;;;;;;<111111,;;=X...oO@@@@@@Oo o$;,111111235",
",;&&-111111111111222<:O.  .ooooOOOo.O$=,1111111135",
"&&&%-111111111111456:&%+   ....oOOO+><111111111135",
"&&&;,11111111112453:=%#o       .XXXo>1111111111346",
"&&&,11112211121354<$%$+X.ooo.      X>1111111111553",
"&&&,1112555135555;$.o++X.;,,+      X>11111111115<*",
"&&&,112451,345<,>&@XXXX@&,11=%%%%%+.$;3333211235<%",
"%%&,11454;*353=%%@OOX .&1111111111&. %4445311355,&",
"XXo>1143=&&===&$++O. X;,1111111111,:++#+%555555;*&",
"  .&:11>&&&&%$%$OoX O%<111111111111<-$OX+:,1<<<*%&",
" .. #<=%%%%&#+%$O. .=1111111111111115>OOo.#&&&%%%%",
" #-XX+@@@@@@+OoX. O;,1111111111111115>OOOo+#&$@@@@",
"+=<%O XooOOooo   O%111111111111111125>OOoooO#+oooo",
"<114:.   oO.    .;1111111111111111356>O.   ...    ",
"1115:    .X  .&-:2444444444443134455;$X o=O   .&==",
"1125>XX. .XooO;<33333333333354145332#X .@>$ooo+,11",
"1356<%%#.+&,,>Oo@&**********26564=*&+o.##X=<,,,111",
"34561&&%+*:<1,o.XO++@#####$&:,,:-$##oX.$#.;3111111",
"55561&&&&:111,o     oOOOOO@&%%%@OOOO. .$#.:5111111"
};
