/* XPM */
static char *_485b3a8697e4bcee26cb88ed6c33e1d5dBWcL6LJxtMceIL[] = {
/* columns rows colors chars-per-pixel */
"32 32 70 1 ",
"  c #646464",
". c #686868",
"X c #CC825D",
"o c #D08C6A",
"O c #D49778",
"+ c #D5997B",
"@ c #D69A7C",
"# c #E69F6E",
"$ c #E1A176",
"% c #E8A77A",
"& c #E8A87C",
"* c #818181",
"= c #9C9A9A",
"- c #9F9E9D",
"; c #B1B0AF",
": c #BDB2AA",
"> c #B1B0B0",
", c gray71",
"< c #BBBBBB",
"1 c #DDAD95",
"2 c #DEAF98",
"3 c #E4AC85",
"4 c #C0B5AD",
"5 c #C8BFB8",
"6 c #E5BFAC",
"7 c #EEC2A2",
"8 c #EEC2A4",
"9 c #ECC5A9",
"0 c #F0C7AB",
"q c #F0C8AC",
"w c #E4C6B7",
"e c #EFCCB5",
"r c #E4C7B8",
"t c #EBCEBA",
"y c #ECCFBB",
"u c #EFD3BE",
"i c #F0D1BC",
"p c #F2D4BF",
"a c #C1C1C1",
"s c gray77",
"d c #D4D4D3",
"f c gray83",
"g c #D8D5D2",
"h c #D9D6D4",
"j c #DED8D4",
"k c #D8D8D8",
"l c #DEDCD9",
"z c #DDDDDD",
"x c #E6E2DF",
"c c #EAE7E4",
"v c #E9E8E7",
"b c #ECEBEB",
"n c #EFECEB",
"m c #EEEEEE",
"M c #F5EAE4",
"N c #F6EDE7",
"B c #F8EEE7",
"V c #F3EFED",
"C c #F8EFE8",
"Z c #F3F0ED",
"A c #F4F0ED",
"S c gray95",
"D c #F6F6F6",
"F c #F9F4F1",
"G c #F9F7F6",
"H c #FAF8F7",
"J c #FBFBFB",
"K c #FCF9F8",
"L c #FDFCFB",
"P c white",
/* pixels */
"JSSSDPDDDDDDDJPFFFFFFFLPJJJJJJJP",
"S   .fk,,,,,,aP1XXXXXX+As,,,,,,J",
"S    .fk,,,,<ZqB1XXXXXX+As,,,,,J",
"S     .fz,,<Z8#%B2XXXXXX+As,,,,J",
"D.     .fk<Z7###%B1XXXXXX+As,,,J",
"Pf.     .fH7#####%B1XXXXX@nms,,J",
"Dkf.     .hi######%B1XXX@n**ms,J",
"D,kf.     .hi######%B1X@n*  *msJ",
"D,,kf.     .hi######%B6n*    *mP",
"D,,,kf.     .hi######%C>      *P",
"D,,,<Gd.     .hi######%N=      S",
"D,,<A8tf.      gi######%N-     S",
"D,<V7##yd.     .hi######%N=    S",
"JaV7####yd.     .li######%N=   S",
"PP0######yd.    *Sb9######%N=  S",
"F1B%######yd.  *Sa,4$######%N= S",
"FX1C&######tf.*Ss,,,5e######%N-S",
"FXX1B%######ykSa,,,,,cp######0PP",
"FXXX1B%######ub,,,,,,,x3####7MOH",
"FXXXX1B%######uv,,,,,,,:$##7MoXF",
"FXXXXX1B%######uv,,,,,,,ji7MoXXF",
"FXXXXXX1B%######uv,,,,,,,cFoXXXF",
"P+XXXXXX6C%######uv,,,,,,,cwXXXF",
"PA+XXXX@n;N%######uv,,,,,,,cwXXF",
"JsA+XX@n* =N%######uv,,,,,,,cwXF",
"J,sA+@n*   =N%######uv,,,,,,,cwF",
"J,,sAn*     =N%#####7Gv,,,,,,,cP",
"J,,,sm*      =N%###7Mowv,,,,,,,J",
"J,,,,sm*      =N%#7MoXXwv,,,,,,D",
"J,,,,,sm*      =N0MoXXXXwv,,,,,D",
"J,,,,,,sm*      =POXXXXXXrv,,,,D",
"PJS,,,SJPJSSSSSSSPKFFFFFFFPJDDDP"
};
