/* XPM */
static char *_ff5b662aa16432aba0c2b70bd23516emoJ9dRUg7A1wBvxq[] = {
/* columns rows colors chars-per-pixel */
"32 32 133 2 ",
"   c None",
".  c #69360C",
"X  c #82440F",
"o  c #844C0F",
"O  c #8B570F",
"+  c #864A10",
"@  c #894815",
"#  c #994614",
"$  c #965713",
"%  c #9D5E12",
"&  c #A35116",
"*  c #A35E13",
"=  c #AC6616",
"-  c #B16E13",
";  c #C6541B",
":  c #CA541B",
">  c #CD5C1B",
",  c #D2571C",
"<  c #D3591D",
"1  c #DE5C1E",
"2  c #E45F1F",
"3  c #C06E10",
"4  c #CD651B",
"5  c #C57714",
"6  c #CE7511",
"7  c #CE7E15",
"8  c #D37711",
"9  c #D47A13",
"0  c #D97C13",
"q  c #D76421",
"w  c #DA6521",
"e  c #DA6C24",
"r  c #CF7126",
"t  c #D47426",
"y  c #D97727",
"u  c #DA7728",
"i  c #DE7928",
"p  c #DD7338",
"a  c #EA6321",
"s  c #E46C24",
"d  c #F46521",
"f  c #FB6922",
"g  c #E57024",
"h  c #ED7627",
"j  c #E17B29",
"k  c #EB7C29",
"l  c #FB7326",
"z  c #FD7D2C",
"x  c #FB7A36",
"c  c #D48217",
"v  c #DB8114",
"b  c #D6801D",
"n  c #E38515",
"m  c #E78915",
"M  c #EA8916",
"N  c #E48C1A",
"B  c #EA8E18",
"V  c #EA921A",
"C  c #F49419",
"Z  c #FC921B",
"A  c #F5991C",
"S  c #FE9D1B",
"D  c #EC812B",
"F  c #F4862C",
"G  c #FD842C",
"H  c #FE8B2E",
"J  c #FB8131",
"K  c #E5993E",
"L  c #FFA224",
"P  c #DB8646",
"I  c #EC8B4B",
"U  c #F68E48",
"Y  c #F7B251",
"T  c #DA9C6A",
"R  c #C69272",
"E  c #DEA06E",
"W  c #D4AA79",
"Q  c #F4A769",
"!  c #EEA573",
"~  c #F1A674",
"^  c #F3AC75",
"/  c #F6A57C",
"(  c #F1AF7C",
")  c #C59F8A",
"_  c #C5A28D",
"`  c #D8A887",
"'  c #C7A99A",
"]  c #D2AD96",
"[  c #F0AF84",
"{  c #F1B584",
"}  c #EEBA92",
"|  c #E9B39D",
" . c #F0B792",
".. c #CFB2A0",
"X. c #CAB9A4",
"o. c #DCBCA6",
"O. c #D4BBAB",
"+. c #E6BDAF",
"@. c #D8C0B1",
"#. c #EDC0A2",
"$. c #EAC3AD",
"%. c #F8C8A2",
"&. c #E4CAB7",
"*. c #E8CAB6",
"=. c #F3DEBE",
"-. c #DFD4D6",
";. c #D6D2D9",
":. c #DCDCDE",
">. c #F4D9C8",
",. c #E7DDD8",
"<. c #E8DFD9",
"1. c #ECE0D9",
"2. c #D9DEE3",
"3. c #D1DDEE",
"4. c #D5DFF0",
"5. c #DCE1E6",
"6. c #DDE5ED",
"7. c #D6E1F1",
"8. c #DBE5F3",
"9. c #DFE9F4",
"0. c #E4E2E3",
"q. c #EDE6E1",
"w. c #E0E5EE",
"e. c #EBEBEB",
"r. c #E3EBF6",
"t. c #E8EEF4",
"y. c #E6EEF8",
"u. c #ECF1F6",
"i. c #EBF2FA",
"p. c #F1F6FC",
"a. c #F1F8FD",
"s. c #F2F8FD",
"d. c #F2F8FD",
/* pixels */
"                                                                ",
"                                                                ",
"                                                                ",
"                                                                ",
"                                                                ",
"                                                                ",
"                              u.                                ",
"                    2.5.5.i.p.i.u.                              ",
"              S W u.p.i.y.p.p.i.y.y.y.$.H H H H                 ",
"              S Y :.;.| ` :.,.^ Q [ ~ G D H t t F               ",
"            S 8 6 B X f G } { t t y t u D H r t k               ",
"            Z 3 S 9 o f f *.%.H H H H H i t y j H               ",
"            S 8 S 6 + f f +. .k t t i t y i D H G               ",
"            S M 8 C # d : : : < w g h h I ! I p $.a.i.          ",
"        S Z 4 C S O + N % a f f D D D D 0.p.a.a.a.i.9.#.        ",
"      S S S Z > & @ S S S + f s t t D H [ -.0.p.&.E P u         ",
"      m 6 6 C d f = 9 6 8 - 2 l H H D t t i T e.H j t t H       ",
"      9 m S 8 > f = 9 n v c ; a h H H H H H ( q.t y y H H       ",
"      C v N M ; f * 0 A v 5 2 f , l G t y t o.<.t t H G z       ",
"      L m n 7 d f & S b K $ f f f : 1 f l z J U e q q f /       ",
"    p.=.A V . f f a X.6.i.0./ f f f d d f f f f f f f x t.4.    ",
"    7.i.e.O.@.>.1.w.i.a.a.a.a.e.] R R R ) _ ' _ _ _ ..p.y.7.    ",
"    8.3.3.7.7.r.i.a.a.a.a.a.a.i.i.y.y.y.i.i.p.y.r.i.9.9.3.      ",
"              7.y.a.i.y.9.7.7.7.7.7.7.7.3.3.3.8.r.9.7.8.        ",
"          8.3.4.r.7.7.8.                                        ",
"          9.7.8.8.                                              ",
"                                                                ",
"                                                                ",
"                                                                ",
"                                                                ",
"                                                                ",
"                                                                "
};
