/* XPM */
static char *_968433ab6e74309ee12dda3b2eb1fea6abCy4WgIaxQfMvg[] = {
/* columns rows colors chars-per-pixel */
"50 50 158 2 ",
"   c None",
".  c #4B1212",
"X  c #6E1B1B",
"o  c #741C1C",
"O  c #7D1E1F",
"+  c #80291A",
"@  c #81221E",
"#  c #811F20",
"$  c #862121",
"%  c #8A2122",
"&  c #952524",
"*  c #9C2626",
"=  c #A12627",
"-  c #A62729",
";  c #A52828",
":  c #AB292A",
">  c #B32C2B",
",  c #BC2D2E",
"<  c #AD3B21",
"1  c #BC3333",
"2  c #C12E2F",
"3  c #C6302F",
"4  c #C42E31",
"5  c #C82F31",
"6  c #C73031",
"7  c #CB3132",
"8  c #C23D3D",
"9  c #CB3B3C",
"0  c #D43334",
"q  c #DB3435",
"w  c #DB3C32",
"e  c #E23737",
"r  c #E73837",
"t  c #E93B37",
"y  c #E73738",
"u  c #EB3739",
"i  c #E63838",
"p  c #EE3A3A",
"a  c #F43B3A",
"s  c #FE3D3D",
"d  c #A44E29",
"f  c #BF4525",
"g  c #AA572B",
"h  c #A4642A",
"j  c #AE632C",
"k  c #B3772E",
"l  c #C64D23",
"z  c #D84F26",
"x  c #D3442C",
"c  c #FD5F2B",
"v  c #E34630",
"b  c #ED4035",
"n  c #FE4B36",
"m  c #F64238",
"M  c #FE4539",
"N  c #FF4A38",
"B  c #F14833",
"V  c #F65132",
"C  c #FE5533",
"Z  c #FE5C32",
"A  c #E3612A",
"S  c #FB632C",
"D  c #FC6C2D",
"F  c #F07227",
"G  c #FA7C27",
"H  c #FA732E",
"J  c #FC7C2D",
"K  c #FB7327",
"L  c #FE6531",
"P  c #FE6B30",
"I  c #FD7030",
"U  c #B84D4D",
"Y  c #B55454",
"T  c #B45F5F",
"R  c #8F7C6F",
"E  c #B36B6B",
"W  c #C14949",
"Q  c #C74343",
"!  c #B98C2E",
"~  c #B5972F",
"^  c #BC8731",
"/  c #B79830",
"(  c #C39933",
")  c #FB842D",
"_  c #FB8B2D",
"`  c #FC8D26",
"'  c #FB942F",
"]  c #FB9A2E",
"[  c #FB9A30",
"{  c #C2A233",
"}  c #D0A536",
"|  c #D6B239",
" . c #D9B43C",
".. c #FAA32E",
"X. c #FAA631",
"o. c #FAAC32",
"O. c #E4BE3B",
"+. c #FAB533",
"@. c #FBBB35",
"#. c #E7C03B",
"$. c #ECC53E",
"%. c #FBC336",
"&. c #FBC439",
"*. c #F4CB3E",
"=. c #FBCC3C",
"-. c #FCD13F",
";. c #FCD13F",
":. c #A7955A",
">. c #A39155",
",. c #BEA44C",
"<. c #BAA354",
"1. c #B4A25F",
"2. c #988C7F",
"3. c #B09E63",
"4. c #B6A467",
"5. c #B5A56D",
"6. c #B2A471",
"7. c #C9AB43",
"8. c #C1A74B",
"9. c #D1B142",
"0. c #DAB840",
"q. c #F5CE40",
"w. c #FAD242",
"e. c #FCD341",
"r. c #FCD242",
"t. c #FCD342",
"y. c #FED342",
"u. c #FCD141",
"i. c #FCD442",
"p. c #FDD543",
"a. c #FDD442",
"s. c #FCD342",
"d. c #A38A8C",
"f. c #A89F99",
"g. c #AFA685",
"h. c #B0A787",
"j. c #BDB79F",
"k. c #B9B49E",
"l. c #B7B29C",
"z. c #BC9FA1",
"x. c #BFA9AA",
"c. c #B7A8A5",
"v. c #BEAEB1",
"b. c #C1A9AB",
"n. c #C0BCA7",
"m. c #C0BCA8",
"M. c #C4B6B8",
"N. c #C2BBBE",
"B. c #C2B2B4",
"V. c #C5C4BB",
"C. c #C6C6C5",
"Z. c #D5CBCC",
"A. c #CED0CF",
"S. c #D3D2CD",
"D. c #D5D2D4",
"F. c #DADBDB",
"G. c #DBD4D5",
"H. c #E1E4E5",
/* pixels */
"                                                                                                    ",
"                                                                                                    ",
"                                                                                                    ",
"                                                                                                    ",
"                                                        * O                                         ",
"                                                        0 >                                         ",
"                                                        X                                           ",
"                                                      #                                             ",
"                                          .       O x V >                                           ",
"                                        : > *   O r G D *   % o                                     ",
"                                        7 q     q s N t     6 =                                     ",
"                                        - o   > s C n 0     $                                       ",
"                                            O a L +.J 2                                             ",
"                                            4 n o.=.P q 3 q                                         ",
"                                      2   o p J -.@.C s P H &                                       ",
"                                    , i . , n +.p.o.M s ] ] >                                       ",
"                                  + F v & a H =.p.' s s D L 0                                       ",
"                                  f ` n s M ] p.u._ s M S M p o   $ O                               ",
"                                  t C J N C @.u.u._ s ) &.J s :   6 :                               ",
"                                * s J %.C I =.u.p.' C @.p.o.c z                                     ",
"                                , N o.&.Z ' u.u.p.o.) =.u.&.S n =                                   ",
"                            @ > e L &.=.G +.u.u.u.=.&.u.u.;.J L A O 7                               ",
"                            l D s ) u.u.%.=.u.u.u.u.u.u.u.p...` ..b S <                             ",
"                          O B K n X.p.u.u.u.u.u.u.u.u.u.u.p.&.G D C Z w                             ",
"                          , Z +.` &.u.u.u.u.u.u.u.u.u.u.u.u.u.+.) +.' m %                           ",
"                          r ) -.=.u.u.u.u.q.q.u.u.u.w.*.w.u.u.u.-.u.&.D 2                           ",
"                        - n o.p.u.u.u.p.} g h $.p.p.( d k *.p.u.u.u.p.o.B #                         ",
"                        q L &.u.u.*.O.#.! g ^ q.u.p. .j h O.#.O.*.u.u.=.P 5                         ",
"                      $ a _ u.u. .6.m.j.1.O.p.u.u.u.u.w.O.1.j.n.6. .u.p.] a #                       ",
"                      > n +.p.O.h.M.x.M.d.>.*.u.u.u.u.*.:.d.B.x.v.g.O.p.+.n >                       ",
"                      7 Z &.p.8.A.Y 0 1 9 R 0.p.u.u.p.0.2.9 1 7 U C.8.p.&.Z 6                       ",
"                      0 L &.u.<.H.E a s Q f.9.p.u.u.p.9.c.W s a T F.<.u.=.P 0                       ",
"                      0 L &.p.7.S.G.Y 8 z.l.| $.u.u.$.| k.b.8 U Z.S.7.p.=.P 0                       ",
"                      4 C &.p.*.3.F.D.N.V.,.O.~ u.u.~ O.,.V.N.D.F.3.*.u.&.Z 7                       ",
"                      - M X.p.u.$.,.5.4.7.*.u.{ / / { u.*.7.4.5.,.$.u.p.+.n >                       ",
"                        u D &.u.u.u.=.=.u.u.u.w.O.O.w.u.u.u.=.=.u.u.u.u._ a $                       ",
"                        * M ) &.p.u.u.u.u.u.u.u.u.u.u.u.u.u.u.u.u.u.p.+.C 6                         ",
"                        * 6 M J @.-.p.u.u.u.u.u.u.u.u.u.u.u.u.u.p.=.o.Z a %                         ",
"                        e , : a C ) o.&.=.u.u.p.p.p.p.p.u.-.=.%.X.J n p > 2                         ",
"                        e a X O 7 a M Z I ) _ ' [ [ ' ' _ J P C M a 2 % e e                         ",
"                        0 s 0     O - 4 q y a a a a a a a u q 6 : o . 6 s 0                         ",
"                        , s s ,             o O $ % % $ O           , s s ,                         ",
"                        % p a ;                                     ; a p %                         ",
"                          $ $ *                                     * $ $                           ",
"                                                                                                    ",
"                                                                                                    ",
"                                                                                                    ",
"                                                                                                    ",
"                                                                                                    ",
"                                                                                                    "
};
