/* XPM */
static char *b80f031c28da449d973af4957d111f9cErAjjomJdnqiBMMa[] = {
/* columns rows colors chars-per-pixel */
"64 64 182 2 ",
"   c None",
".  c #010101",
"X  c #0D0C09",
"o  c #1F1A08",
"O  c #151515",
"+  c #230C09",
"@  c #3D150F",
"#  c #332B0F",
"$  c #2A230B",
"%  c #530A19",
"&  c #5D0C1C",
"*  c #431611",
"=  c #461911",
"-  c #4B1A12",
";  c #541D15",
":  c #591F16",
">  c #571B1A",
",  c #581119",
"<  c #630E1D",
"1  c #6D0E1F",
"2  c #62121F",
"3  c #482514",
"4  c #5D2016",
"5  c #562B17",
"6  c #542418",
"7  c #573317",
"8  c #5B3819",
"9  c #612117",
"0  c #652319",
"q  c #69251A",
"w  c #70271B",
"e  c #74291C",
"r  c #7B2B1E",
"t  c #7A351C",
"y  c #5D1B27",
"u  c #581A25",
"i  c #690D21",
"p  c #750E25",
"a  c #781126",
"s  c #59252E",
"d  c #552E35",
"f  c #4A363A",
"g  c #59383E",
"h  c #603C29",
"j  c #6C461C",
"k  c #71511E",
"l  c #4D432B",
"z  c #5C4B23",
"x  c #5F5328",
"c  c #524630",
"v  c #61422F",
"b  c #775520",
"n  c #776428",
"m  c #7A6A34",
"M  c #5E3D43",
"N  c gray26",
"B  c #695054",
"V  c #6F635B",
"C  c #6F6B5D",
"Z  c #7E605B",
"A  c #7D755A",
"S  c #6B6345",
"D  c #725E61",
"F  c #766B65",
"G  c #79746C",
"H  c #7E6E71",
"J  c #7D7371",
"K  c #797979",
"L  c #822D1F",
"P  c #8E112F",
"I  c #971231",
"U  c #A01334",
"Y  c #842E21",
"T  c #8D3122",
"R  c #873929",
"E  c #943424",
"W  c #9A3626",
"Q  c #A23927",
"!  c #A53A28",
"~  c #AB3C2A",
"^  c #B43F2C",
"/  c #B6651C",
"(  c #8E4523",
")  c #914324",
"_  c #8B5223",
"`  c #A64429",
"'  c #B4422B",
"]  c #BB422E",
"[  c #A3493B",
"{  c #926726",
"}  c #89742F",
"|  c #8B6C2D",
" . c #AA752A",
".. c #C75F1E",
"X. c #C4482C",
"o. c #CC532A",
"O. c #D0512B",
"+. c #C94631",
"@. c #CC4832",
"#. c #D44A34",
"$. c #D94C35",
"%. c #E75F2E",
"&. c #E34F37",
"*. c #E45335",
"=. c #EC5239",
"-. c #E75535",
";. c #F4553B",
":. c #F9573C",
">. c #FF593D",
",. c #FE5F37",
"<. c #FC6C2F",
"1. c #FB752B",
"2. c #FA7C29",
"3. c #F97F21",
"4. c #FD6335",
"5. c #FC6A31",
"6. c #DB1A47",
"7. c #844E45",
"8. c #846547",
"9. c #867B52",
"0. c #856B66",
"q. c #AB8C2D",
"w. c #B28A2E",
"e. c #AD902E",
"r. c #BC9C31",
"t. c #B69534",
"y. c #F6900F",
"u. c #F88C1B",
"i. c #F79C1B",
"p. c #F89D1E",
"a. c #F8911A",
"s. c #C18A2E",
"d. c #F98326",
"f. c #F98B25",
"g. c #FA8029",
"h. c #F99425",
"j. c #F99C25",
"k. c #CDAB36",
"l. c #C7A634",
"z. c #D2AE37",
"x. c #D4AE38",
"c. c #DBB63A",
"v. c #DFBA3A",
"b. c #D7B438",
"n. c #F9A227",
"m. c #F9A728",
"M. c #FAAB2A",
"N. c #FAB42D",
"B. c #FAB82F",
"V. c #E1BB3B",
"C. c #FABC32",
"Z. c #FAB530",
"A. c #E7C13D",
"S. c #EBC43D",
"D. c #FBC436",
"F. c #F2CA3F",
"G. c #FBCC3C",
"H. c #FAC639",
"J. c #FCD03F",
"K. c #A89140",
"L. c #938A69",
"P. c #95907C",
"I. c #F4CC40",
"U. c #F8CF41",
"Y. c #FCD242",
"T. c #828282",
"R. c #9B9696",
"E. c #989696",
"W. c #94898B",
"Q. c #A69E9F",
"!. c #ABA3A4",
"~. c gray70",
"^. c #B8B5AC",
"/. c #C0C0C0",
"(. c #D5CFCE",
"). c #D2D2D1",
"_. c #DDDBDB",
"`. c gray89",
"'. c #EEEEEE",
"]. c white",
"[. c white",
"{. c #F4F4F4",
/* pixels */
"                                                                                                                                ",
"                                                                                                                                ",
"                                                                                                                                ",
"                                                                                                                                ",
"                                                                                                                                ",
"                                                                                                                                ",
"                                                                                                                                ",
"                                                                                                                                ",
"                                                                                                                                ",
"                                                                                                                                ",
"                                                                          9 ' ;.-                                               ",
"                                                                      4 #.1.i.*.                                                ",
"                                                                  * ^ >.>.2.g.r                                                 ",
"                                                                : =.>.2.f.>.;.=                                                 ",
"                                                              q >.>.f.G.n.>.E                                                   ",
"                                                            e >.>.h.G.Y.f.>.q                                                   ",
"                                                          4 >.>.h.J.Y.C.4.>.* - -                                               ",
"                                                        - ;.>.f.G.Y.Y.j.>.;.+ =.-                                               ",
"                                                ; -   @ &.>.1.C.Y.Y.Y.d.>.:.-.;.                                                ",
"                                              e ;.-   E >.,.n.Y.Y.Y.D.<.>.4.i.O.                                                ",
"                                            q >.~   ; >.>.f.J.Y.Y.Y.m.>.>.5.f.Q                                                 ",
"                                          ; 1.4.q   #.>.4.N.Y.Y.Y.Y.h.>.f.2.>.Y     - r                                         ",
"                                          ] u.4.- q 1.>.f.Y.Y.Y.Y.Y.d.g.G.h.>.L     o.X.                                        ",
"                                        9 >.>.>.+ =.u.5.Z.Y.Y.Y.Y.G.3.M.Y.h.>.Y   9 a...                                        ",
"                                        ^ >.,.>.;.>.>.f.Y.Y.Y.Y.Y.G.y.J.Y.j.>.T   ! ,.W                                         ",
"                                      - >.4.p.<.2.d.4.N.Y.Y.Y.Y.Y.Y.N.Y.Y.m.>.~ + =.>.~                                         ",
"                                      e >.f.G.1.j.h.f.Y.Y.Y.Y.Y.Y.Y.Y.Y.Y.C.4.$.+ <.i.X.                                        ",
"                                      ] ,.M.G.1.g.5.M.Y.Y.Y.Y.Y.Y.Y.Y.Y.Y.G.2.:.; f.C.-.                                        ",
"                                    * :.1.G.Y.2.>./ S.Y.Y.Y.Y.Y.Y.Y.Y.Y.Y.F./ >.=.f.M.,.=                                       ",
"                                    q >.f.Y.Y.f.,.t ) { V.Y.Y.Y.Y.Y.Y.A.{ ( t :.>.1.p.>.q                                       ",
"                                    E >.j.Y.Y.s.8.v &.;.` _ w.Y.Y.t._ ` ;.=.h 8.[ >.4.>.W                                       ",
"                                    &.4.N.Y.K.^.[.{.0.R ] ' j U.Y.j ` ] R Z `.[._.7.f.d.;.*                                     ",
"                                  : >.g.Y.S.P.[./.O . K S b.Y.Y.Y.Y.S.m T.. . ~.[.(. .C.1.Y                                     ",
"                                  T >.j.Y.t.).[.N . . T.G F.Y.Y.Y.Y.Y.9.X . . R.'.[.| Y.j.;.=                                   ",
"                                  =.5.C.v.n A L.l $ X . C I.Y.Y.Y.Y.Y.9.O . o # L.L.z r.H.1.E                                   ",
"                                9 >.f.Y.I.I.Y.Y.Y.Y.V.} x V.Y.Y.Y.Y.Y.n m r.Y.Y.Y.Y.Y.S.Y.h.:.-                                 ",
"              ; =   4 =         ~ >.j.Y.Y.Y.Y.v.z.Y.Y.Y.I.q.Y.Y.Y.Y.l.b.Y.Y.Y.Y.S.r.Y.Y.Y.M.>.L         = 4   = ;               ",
"      -     * ;.;   Y e       @ ;.4.B.Y.Y.Y.Y.q.* 5 l n k.Y.Y.Y.Y.Y.Y.Y.k.n c 7 ; 7 Y.Y.Y.D.5.=.        e L   ; ;.=     -       ",
"      ! -   q >.; @ #.;       4 >.2.G.Y.Y.Y.Y.z., 1 D `.E.G G V V F J J R._.H 1 1 j Y.Y.Y.Y.g.>.4       ; #.@ ; >.q   - Q       ",
"      w ] - - >.] *.-         w >.f.Y.Y.Y.Y.Y.I.5 1 s R.f Q.[.!.f {.[.W.J ).d 1 < } Y.Y.Y.Y.f.>.e         - *.] >.- - ] w       ",
"        q @.;.>.>.>.-         e >.f.Y.Y.Y.Y.Y.Y.k 1 1 & 1 u M y 1 g B y < u 1 1 6 F.Y.Y.Y.Y.f.>.r         - >.>.>.;.@.q         ",
"            0 >.>.>.9         q >.f.Y.Y.Y.Y.Y.Y.x.: 1 1 1 1 1 1 1 1 1 1 1 1 1 1 b Y.Y.Y.Y.Y.f.>.e         9 >.>.>.0             ",
"              +.>.>.r         : >.1.G.Y.Y.Y.Y.Y.Y.| < 1 1 1 1 1 1 1 1 1 1 1 1 7 I.Y.Y.Y.Y.Y.g.>.0         r >.>.+.              ",
"              = ;.>.@.        ; 4 -.M.Y.Y.Y.Y.Y.Y.Y.k , % p a < % & i < % 1 6 z.Y.Y.Y.Y.Y.C.%.9 ;         @.>.;.-               ",
"                4 :.>.W T ~ $.W ; >.g.G.Y.Y.Y.Y.Y.Y.Y.8 a 6.6.6.6.6.6.6.P 3 v.Y.Y.Y.Y.Y.Y.j.>.q W $.! T W >.:.4                 ",
"                  ; $.#.W e =     #.>.f.G.Y.Y.Y.Y.Y.Y.Y.r.6 2 a U I p > b Y.Y.Y.Y.Y.Y.Y.N.5.>.;   = e W #.$.;                   ",
"                                  @ $.>.d.N.Y.Y.Y.Y.Y.Y.Y.Y.Y.v.e.r.I.Y.Y.Y.Y.Y.Y.Y.Y.M.1.>.W                                   ",
"                                    = X.>.4.f.M.G.Y.Y.Y.Y.Y.Y.Y.Y.Y.Y.Y.Y.Y.Y.Y.G.M.f.4.>.^                                     ",
"                                        e =.>.,.1.f.h.n.M.N.C.D.D.C.C.N.M.n.j.f.1.,.>.;.r                                       ",
"                                          @ q ] ;.>.>.>.>.,.4.4.4.4.4.,.>.>.>.>.>.+.e *                                         ",
"                                                @ : w r T Q ^ +.#.+.] ' Q Y e q -                                               ",
"                                                                                                                                ",
"                                                                                                                                ",
"                                                                                                                                ",
"                                                                                                                                ",
"                                                                                                                                ",
"                                                                                                                                ",
"                                                                                                                                ",
"                                                                                                                                ",
"                                                                                                                                ",
"                                                                                                                                ",
"                                                                                                                                ",
"                                                                                                                                ",
"                                                                                                                                "
};
