/* XPM */
static char *_11fdf7ff81341b080de93ec5339dcdeQIedZTcPwbItnnev[] = {
/* columns rows colors chars-per-pixel */
"32 32 192 2 ",
"   c None",
".  c #3C4552",
"X  c #49515C",
"o  c #515963",
"O  c #545C67",
"+  c #86673E",
"@  c #8A683D",
"#  c #9A6F3A",
"$  c #B47536",
"%  c #896B46",
"&  c #F58210",
"*  c #F58310",
"=  c #F58311",
"-  c #F58410",
";  c #F68712",
":  c #F68912",
">  c #F68C13",
",  c #F78D13",
"<  c #F78E14",
"1  c #EE9A1B",
"2  c #F79015",
"3  c #F79215",
"4  c #F89216",
"5  c #F99317",
"6  c #F99516",
"7  c #F89517",
"8  c #F2991F",
"9  c #FA9A18",
"0  c #F99C18",
"q  c #F99D19",
"w  c #FB9F1B",
"e  c #FF9F1C",
"r  c #F9A11A",
"t  c #FCA11B",
"y  c #FFA01C",
"u  c #FCA31C",
"i  c #FFA21C",
"p  c #FBA61C",
"a  c #FDA41C",
"s  c #FCA51C",
"d  c #FFA41D",
"f  c #FEA51D",
"g  c #FCA71D",
"h  c #FEA61D",
"j  c #FFA61E",
"k  c #FFA81E",
"l  c #FFA91F",
"z  c #FFAA1F",
"x  c #FFAC1F",
"c  c #FDB01F",
"v  c #CF8728",
"b  c #DE8327",
"n  c #D19427",
"m  c #D58932",
"M  c #D78638",
"N  c #FFA120",
"B  c #F6AA24",
"V  c #FFAA20",
"C  c #FEAD20",
"Z  c #FDAF20",
"A  c #F8B322",
"S  c #FDB120",
"D  c #FFB121",
"F  c #FEB122",
"G  c #FEB322",
"H  c #FCB420",
"J  c #FFB421",
"K  c #FCB721",
"L  c #FBB525",
"P  c #FDB822",
"I  c #FFBB23",
"U  c #FFBC23",
"Y  c #FEBC24",
"T  c #FFBD24",
"R  c #FFBD25",
"E  c #FFBF26",
"W  c #ECB135",
"Q  c #E8B13E",
"!  c #FEC024",
"~  c #FFC025",
"^  c #FFC125",
"/  c #FFC026",
"(  c #FFC126",
")  c #FEC226",
"_  c #FFC226",
"`  c #FEC326",
"'  c #FFC326",
"]  c #FEC626",
"[  c #FFC827",
"{  c #FFC928",
"}  c #FFCA28",
"|  c #968A75",
" . c #9E927E",
".. c #A79375",
"X. c #AC9A7D",
"o. c #CA945E",
"O. c #D9A840",
"+. c #F9AE49",
"@. c #FCB85D",
"#. c #7B7F83",
"$. c #79818A",
"%. c #8D949D",
"&. c #AC9987",
"*. c #A0A099",
"=. c #B4A191",
"-. c #BCAD94",
";. c #9EA0A1",
":. c #B0A9A1",
">. c #B5B1AB",
",. c #BEB7AB",
"<. c #A9B1BB",
"1. c #E0BC8A",
"2. c #C1B6A5",
"3. c #C4BDB6",
"4. c #E0C39C",
"5. c #BBC0C7",
"6. c #AEC6E1",
"7. c #B1C9E2",
"8. c #B1C8E3",
"9. c #B3C9E2",
"0. c #B2CAE2",
"q. c #B4C8E3",
"w. c #B9CCE5",
"e. c #B9CDE5",
"r. c #BBCCE5",
"t. c #BDCFE6",
"y. c #BDD0E6",
"u. c #C6CACF",
"i. c #CFD0D1",
"p. c #D5DADE",
"a. c #C1D3E9",
"s. c #C4D4E9",
"d. c #C5D4E9",
"f. c #C6D4EB",
"g. c #C7D7EB",
"h. c #C8D7EA",
"j. c #C9D7EB",
"k. c #C9D8EA",
"l. c #C9D8EC",
"z. c #CCD9EC",
"x. c #D1D9E2",
"c. c #D5DEEB",
"v. c #D0DBED",
"b. c #D0DDEF",
"n. c #D4DFEF",
"m. c #DAE2EC",
"M. c #DCE3EC",
"N. c #DFE6EE",
"B. c #D5E0F0",
"V. c #D6E0F1",
"C. c #D7E1F1",
"Z. c #DBE6F3",
"A. c #DCE6F3",
"S. c #DEE6F2",
"D. c #DDE7F5",
"F. c #DEE7F4",
"G. c #DEE6F5",
"H. c #E7EBEE",
"J. c #EFEDE9",
"K. c #E3E9F2",
"L. c #E0E9F5",
"P. c #E3E9F5",
"I. c #E1EAF5",
"U. c #E2EAF4",
"Y. c #E0E9F6",
"T. c #E2EAF6",
"R. c #E3EBF6",
"E. c #E4EDF8",
"W. c #E5EEF8",
"Q. c #E7EFF9",
"!. c #E8EFF9",
"~. c #EDF1F2",
"^. c #E9F0F8",
"/. c #E8F1F9",
"(. c #E9F1F9",
"). c #E8F2F9",
"_. c #EBF2F9",
"`. c #EAF2FA",
"'. c #EBF2FA",
"]. c #ECF3FA",
"[. c #EBF4FA",
"{. c #EDF4FA",
"}. c #EEF5FA",
"|. c #EEF4FB",
" X c #EEF5FB",
".X c #EEF4FC",
"XX c #F0F6FC",
"oX c #F1F6FC",
"OX c #F0F7FC",
"+X c #F1F7FD",
"@X c #F2F8FD",
"#X c #F2F8FE",
/* pixels */
"                                                                ",
"                                                                ",
"                                                                ",
"                                                                ",
"                                  w.b.                          ",
"                                    z.                          ",
"                                q.t.l.v.f.                      ",
"                        w.      6.a.f.y.                        ",
"                        7.h.    7.h.f.                          ",
"                          w.k.  7.f.                            ",
"                                7.                              ",
"                        # + + + % + + + @ 8                     ",
"                    4.p.<.. X $.o O %.#.v e u                   ",
"                  o.Z./.oX{.oXN.R.M.m./.+.s E                   ",
"                  s Q O.-.K.u.B A L W 2.N E !                   ",
"                  9 c c s :.&.u c c C < u { !                   ",
"                  4 2 2 ; =.>.6 2 , & , s { !                   ",
"                  V ! ! p ,.x.S { { ; P l [ U                   ",
"                  s s s 6 m X.u s u & 0 l P !                   ",
"                  & & & & & & & & & & & l ! !                   ",
"                  S ! & s ! ] ] r 6 E ! s { !                   ",
"                  s C & s s x l 0 4 l P e [ !                   ",
"                  M b & & & & & & & & & e S E                   ",
"                ~.{.R.5.$ t S J J 0 : J e u @.@X                ",
"            /.@X@X@X@X].c. .1 J n | ;.*...1.J.@X@XR.            ",
"            V.oX@X@X@XoX/./.i.3.H.@X@X@X@XoX@X@X{.n.            ",
"            S.V.R.!./.]./.].oX{..X{.[./.Q.Q.R.F.V.F.            ",
"                    V.F.Q.R.R.                                  ",
"                    F.S.                                        ",
"                                                                ",
"                                                                ",
"                                                                "
};
