/* XPM */
static char *_37c20344bc6441883512b28acdbef61PPuplwhGfInd5pGX[] = {
/* columns rows colors chars-per-pixel */
"32 32 161 2 ",
"   c None",
".  c #F42A3C",
"X  c #F63F4D",
"o  c #F6404E",
"O  c #F64450",
"+  c #F74753",
"@  c #F74854",
"#  c #F34B5C",
"$  c #F25162",
"%  c #F75961",
"&  c #F75C64",
"*  c #F85F67",
"=  c #F85F68",
"-  c #FD5A7D",
";  c #F86269",
":  c #F8636A",
">  c #F8646B",
",  c #F46270",
"<  c #F66971",
"1  c #F96D72",
"2  c #F96F73",
"3  c #F97074",
"4  c #FA7477",
"5  c #F5727C",
"6  c #FA7A7D",
"7  c #FA7C7E",
"8  c #FA7D7F",
"9  c #FA7E7F",
"0  c #FFE278",
"q  c #FD6F86",
"w  c #FD6F8D",
"e  c #F57780",
"r  c #F17787",
"t  c #F57881",
"y  c #F57B82",
"u  c #F57B84",
"i  c #FA7F80",
"p  c #FA7F81",
"a  c #FD7388",
"s  c #FD788B",
"d  c #FD7491",
"f  c #FD7C98",
"g  c #FD7D98",
"h  c #FB8383",
"j  c #FB8484",
"k  c #FB8686",
"l  c #FB8887",
"z  c #FA8A88",
"x  c #FB908E",
"c  c #FB928F",
"v  c #F38F97",
"b  c #FE8C93",
"n  c #FE8D94",
"m  c #F08A99",
"M  c #F79296",
"N  c #FB9591",
"B  c #FB9692",
"V  c #FE9196",
"C  c #FE9497",
"Z  c #FC9994",
"A  c #FC9A96",
"S  c #FC9B96",
"D  c #FC9C97",
"F  c #FE9799",
"G  c #FC9E98",
"H  c #FC9E99",
"J  c #FD9E9C",
"K  c #FCA09A",
"L  c #FCA09B",
"P  c #FDA09C",
"I  c #FCA19C",
"U  c #FCA29C",
"Y  c #FDA39D",
"T  c #FDA49E",
"R  c #FDA59E",
"E  c #FDA69F",
"W  c #F094A2",
"Q  c #F29BA5",
"!  c #FE9DB1",
"~  c #FDA7A0",
"^  c #FAA6A4",
"/  c #FDA8A1",
"(  c #FDA9A1",
")  c #FDADA3",
"_  c #F9AAA7",
"`  c #FCABA6",
"'  c #F9AEAC",
"]  c #FDB2A4",
"[  c #FDB5A5",
"{  c #FDB7A7",
"}  c #FEBFAA",
"|  c #F2A7B1",
" . c #FEA8B4",
".. c #F9B3B1",
"X. c #F9B4B2",
"o. c #F9B5B3",
"O. c #FEC3AD",
"+. c #FEC6AD",
"@. c #FEC8AE",
"#. c #FECBAF",
"$. c #FECCB0",
"%. c #FECEB1",
"&. c #FECFB1",
"*. c #FECDB7",
"=. c #FED1B2",
"-. c #FED2B3",
";. c #FED3B3",
":. c #FED4B5",
">. c #FED7B5",
",. c #FED7B6",
"<. c #FED8B6",
"1. c #FED3B9",
"2. c #FED4B9",
"3. c #FED5BB",
"4. c #FED6BB",
"5. c #FEB7C5",
"6. c #F5BCC0",
"7. c #FEC2CE",
"8. c #FEC4CF",
"9. c #FEDEC3",
"0. c #FEDAC5",
"q. c #FEDEC4",
"w. c #FEDEC5",
"e. c #FEDCC6",
"r. c #EFC6D1",
"t. c #EDCFDC",
"y. c #FEC6D1",
"u. c #FECED4",
"i. c #EFD0D9",
"p. c #EDD1DC",
"a. c #FFD1D3",
"s. c #FED2D7",
"d. c #FEDAD7",
"f. c #F0D3DC",
"g. c #FEE3CF",
"h. c #FEE4D0",
"j. c #FEE4D1",
"k. c #FFE8DA",
"l. c #EED5E2",
"z. c #EDDAE6",
"x. c #EDDBE7",
"c. c #EEDBE7",
"v. c #EDDCE7",
"b. c #EDDAE8",
"n. c #EDDBE8",
"m. c #FFEBE0",
"M. c #FFEDE4",
"N. c #FFEEE7",
"B. c #FFEFE7",
"V. c #FFE9EB",
"C. c #FFEBEB",
"Z. c #FFF0EA",
"A. c #FFF1ED",
"S. c #FFF1EE",
"D. c #FFF2F0",
"F. c #FFF3F2",
"G. c #FFF4F2",
"H. c #FFF4F3",
"J. c #FFF4F4",
"K. c #FFF5F5",
"L. c #FFF6F6",
/* pixels */
"                                                                ",
"    L.L.          L.L.                              x.x.        ",
"    L.              L.                                n.        ",
"                                                                ",
"            0                                                   ",
"            0                                                   ",
"                                                x.v.            ",
"                                                n.              ",
"                                                                ",
"                                                                ",
"L.L.L.L.L.L.L.L.L.L.L.L.L.L.L.L.x.x.X.                          ",
"L.L.L.L.L.L.L.L.L.L.L.L.L.L.L.L.x.x...( ( ( ( ( ( ( ( ( ( ( ( ( ",
"L.L.L.L.L.L.L.L.L.L.L.L.L.L.L.L.x.x.y & & & 9 ( p & & & & & K ( ",
"L.L.L.L.L.L.L.L.L.L.L.H.m.M.L.L.x.x.$ . . . * ( ; . . . . . S ( ",
"L.L.L.L.L.L.L.L.L.L.L.q.,.,.g.L.x.x.M 9 9 9 x ( x 9 9 9 9 9 P ( ",
"L.L.L.H.h.q.k.L.L.L.M.,.,.,.,.F.x.x...( ( ( ( ( ( ( ( ( ( ( ( ( ",
"L.L.L. .a a a u.L.L.s.a a a a V.x.x.5 ( z O O O O O k ( % o S ( ",
"L.L.L.d - - - ! L.L.y.- - - - V.x.x., ( h . . . . . 6 ( O . N ( ",
"L.L.L.2.&.&.&.1.A.F.0.&.&.&.&.A.x.x.' ( T K K K K K T ( P P ~ ( ",
"F.L.L.2.&.&.&.-.,.,.&.&.&.&.&.Z.x.x._ K K K P ( P K K K K K ~ ( ",
"h.F.5.- - - - F ,.V - - - - - q.i.m . . . . * ( ; . . . . . S ( ",
",.&.a a a a a T ,.J a a a a a -.K O O O O O 1 ( 3 O O O O O H ( ",
",.,.,.,.,.,.,.,.,.,.,.,.,.,.,.,.( ( ( ( ( ( ( ( ( ( ( ( ( ( ( ( ",
",.-.) { ,.@.) ) ) ) ) @.,.{ ) ) 9 p k ( D 9 9 9 9 9 S ( l 9 P ( ",
",.+.- s ,.( - - - - - ] ,.q - - . . X ( h . . . . . 6 ( @ . N ( ",
",.&.C T ,.} C C C C C O.,.P C C = ; 1 ( N > > > > > x ( 4 > H ( ",
",.,.,.,.,.,.,.9.9.,.,.,.,.,.,.,.( ( ( ( ( ( ( ( ( ( ( ( ( ( ( ( ",
",.&.b b b n a.L.L.d.n b b b b -.P & & < Q u 9 ( p & v p.r.e K ( ",
"<.*.w w g 8.L.L.L.L.7.g w w w 2.^ # r t.x.x.| X.y W x.x.x.l.6.` ",
"M.L.L.L.L.L.L.L.L.L.L.L.L.L.L.L.x.x.x.x.x.x.x.x.x.x.x.x.x.x.x.f.",
"L.L.L.L.L.L.L.L.L.L.L.L.L.L.L.L.x.x.x.x.x.x.x.x.x.x.x.x.x.x.x.x.",
"                                                                "
};
